<svg xmlns="http://www.w3.org/2000/svg" width="600" height="508" viewBox="0 0 600 508" role="img" aria-labelledby="title">
<title id="title">Omnitrix identity console for Sangeet Sangwan</title>
<defs>
  <linearGradient id="glass" x1="0" y1="0" x2="1" y2="1"><stop stop-color="#FFFFFF"/><stop offset=".55" stop-color="#FBFFF8"/><stop offset="1" stop-color="#E8F2E3"/></linearGradient>
  <linearGradient id="metal" x1=".12" y1=".05" x2=".9" y2=".95"><stop stop-color="#FFFFFF"/><stop offset=".2" stop-color="#E8F0E4"/><stop offset=".48" stop-color="#9BAB9E"/><stop offset=".72" stop-color="#F9FFF5"/><stop offset="1" stop-color="#667A6D"/></linearGradient>
  <linearGradient id="green" x1="0" y1="0" x2="1" y2="1"><stop stop-color="#0A8650"/><stop offset="1" stop-color="#0B5E3E"/></linearGradient>
  <radialGradient id="glow"><stop stop-color="#82E35B" stop-opacity=".58"/><stop offset="1" stop-color="#82E35B" stop-opacity="0"/></radialGradient>
  <filter id="shadow" x="-40%" y="-40%" width="180%" height="200%"><feDropShadow dx="0" dy="5" stdDeviation="6" flood-color="#274A36" flood-opacity=".18"/></filter>
  <filter id="deepShadow" x="-50%" y="-50%" width="200%" height="230%"><feDropShadow dx="0" dy="12" stdDeviation="15" flood-color="#173826" flood-opacity=".20"/></filter>
  <filter id="glowFilter" x="-80%" y="-80%" width="260%" height="260%"><feGaussianBlur stdDeviation="6"/></filter>
  
</defs>
<style>
  text{font-family:Inter,-apple-system,BlinkMacSystemFont,"Segoe UI",Arial,sans-serif}
</style>
<rect x="1" y="1" width="598" height="506" rx="30" fill="url(#glass)" stroke="#D2DECC"/>
<ellipse cx="90" cy="100" rx="150" ry="145" fill="url(#glow)" opacity=".28"/>
<path d="M448 18C391 110 393 187 505 254" fill="none" stroke="#CFE4C7" stroke-width="2"/>
<path d="M487 17C432 111 442 188 548 244" fill="none" stroke="#E0EBDB" stroke-width="1.4"/><g filter="url(#deepShadow)">
<circle cx="105" cy="122.7" r="70.4" fill="#173A27" opacity=".14"/>
<circle cx="105" cy="112" r="75.0" fill="url(#glow)" opacity=".32"/>
<circle cx="105" cy="112" r="67" fill="url(#metal)" stroke="#1B5938" stroke-width="2.4"/>
<path d="M105.0 54.4L105.0 46.3" stroke="#345A43" stroke-width="2.3" stroke-linecap="round"/><path d="M138.9 65.4L143.6 58.9" stroke="#345A43" stroke-width="2.3" stroke-linecap="round"/><path d="M159.8 94.2L167.4 91.7" stroke="#345A43" stroke-width="2.3" stroke-linecap="round"/><path d="M159.8 129.8L167.4 132.3" stroke="#345A43" stroke-width="2.3" stroke-linecap="round"/><path d="M138.9 158.6L143.6 165.1" stroke="#345A43" stroke-width="2.3" stroke-linecap="round"/><path d="M105.0 169.6L105.0 177.7" stroke="#345A43" stroke-width="2.3" stroke-linecap="round"/><path d="M71.1 158.6L66.4 165.1" stroke="#345A43" stroke-width="2.3" stroke-linecap="round"/><path d="M50.2 129.8L42.6 132.3" stroke="#345A43" stroke-width="2.3" stroke-linecap="round"/><path d="M50.2 94.2L42.6 91.7" stroke="#345A43" stroke-width="2.3" stroke-linecap="round"/><path d="M71.1 65.4L66.4 58.9" stroke="#345A43" stroke-width="2.3" stroke-linecap="round"/>
<circle cx="105" cy="112" r="49.6" fill="#102A25" stroke="#C7FFAC" stroke-width="1.5"/>
<circle cx="105" cy="112" r="40.9" fill="#143831" stroke="#456B55" stroke-width="1"/>
<path d="M75.5 82.5H134.5L113.3 112.0L134.5 141.5H75.5L96.7 112.0Z" fill="#82E35B"/>
<path d="M69.5 76.5A48.2 48.2 0 0 1 135.2 72.5" fill="none" stroke="#FFFFFF" stroke-opacity=".82" stroke-width="3.7" stroke-linecap="round"/>
</g><text x="202" y="60" font-size="11" font-weight="780" letter-spacing="1.8" fill="#087A43">OMNITRIX / IDENTITY CONSOLE</text><text x="202" y="96" font-size="31" font-weight="790" letter-spacing="-1" fill="#13282A">Software Engineer</text><text x="202" y="124" font-size="14" fill="#68766D">Sangeet Sangwan · human form</text><rect x="202" y="145" width="104" height="28" rx="14" fill="#E6F7DF" stroke="#C5E5B9"/><circle cx="218" cy="159" r="4" fill="#82E35B"/><text x="230" y="164" font-size="11" font-weight="760" fill="#087A43">ONLINE</text><rect x="316" y="145" width="142" height="28" rx="14" fill="#F3F7EF" stroke="#D2DECC"/><text x="387" y="164" text-anchor="middle" font-size="11" font-weight="720" fill="#244238">FORM 00 / HUMAN</text><g transform="translate(22 208)" filter="url(#shadow)">
<rect width="270" height="78" rx="20" fill="url(#glass)" stroke="#D2DECC"/>
<circle cx="34" cy="39" r="22" fill="#E9F8E3" stroke="#BEDDB2"/>
<circle cx="34" cy="39" r="8.7" fill="none" stroke="#087A43" stroke-width="2.9000000000000004"/><path d="M21.82 39H26.17M41.83 39H46.18M34 26.82V31.17M34 46.83V51.18" stroke="#087A43" stroke-width="2.9000000000000004" stroke-linecap="round"/>
<text x="68" y="27" font-size="10.5" font-weight="760" letter-spacing="1.4" fill="#68766D">CORE</text>
<text x="68" y="52" font-size="17" font-weight="780" fill="#13282A">Systems + AI</text>
<circle cx="254" cy="15" r="3.5" fill="#82E35B"/>
</g><g transform="translate(308 208)" filter="url(#shadow)">
<rect width="270" height="78" rx="20" fill="url(#glass)" stroke="#D2DECC"/>
<circle cx="34" cy="39" r="22" fill="#E9F8E3" stroke="#BEDDB2"/>
<path d="M24.14 45.67A13.92 13.92 0 0 1 43.86 45.67M27.62 42.19A8.99 8.99 0 0 1 40.38 42.19M31.68 38.42A3.19 3.19 0 0 1 36.32 38.42" fill="none" stroke="#087A43" stroke-width="2.9000000000000004" stroke-linecap="round"/><circle cx="34" cy="47.7" r="1.74" fill="#087A43"/>
<text x="68" y="27" font-size="10.5" font-weight="760" letter-spacing="1.4" fill="#68766D">SIGNAL</text>
<text x="68" y="52" font-size="17" font-weight="780" fill="#13282A">Open source</text>
<circle cx="254" cy="15" r="3.5" fill="#82E35B"/>
</g><g transform="translate(22 302)" filter="url(#shadow)">
<rect width="270" height="78" rx="20" fill="url(#glass)" stroke="#D2DECC"/>
<circle cx="34" cy="39" r="22" fill="#E9F8E3" stroke="#BEDDB2"/>
<rect x="23.85" y="33.2" width="20.299999999999997" height="13.92" rx="2.0300000000000002" fill="none" stroke="#087A43" stroke-width="2.9000000000000004"/><path d="M29.65 33.2V29.14H38.35V33.2M23.85 39.29H44.15" fill="none" stroke="#087A43" stroke-width="2.9000000000000004" stroke-linecap="round"/>
<text x="68" y="27" font-size="10.5" font-weight="760" letter-spacing="1.4" fill="#68766D">CURRENT BASE</text>
<text x="68" y="52" font-size="17" font-weight="780" fill="#13282A">Salesforce · AMTS</text>
<circle cx="254" cy="15" r="3.5" fill="#82E35B"/>
</g><g transform="translate(308 302)" filter="url(#shadow)">
<rect width="270" height="78" rx="20" fill="url(#glass)" stroke="#D2DECC"/>
<circle cx="34" cy="39" r="22" fill="#E9F8E3" stroke="#BEDDB2"/>
<path d="M24.43 47.7L31.1 29.14L36.9 36.68L44.15 29.43L38.64 47.99Z" fill="none" stroke="#087A43" stroke-width="2.9000000000000004" stroke-linejoin="round"/><circle cx="34" cy="41.32" r="2.32" fill="#087A43"/>
<text x="68" y="27" font-size="10.5" font-weight="760" letter-spacing="1.4" fill="#68766D">MISSION</text>
<text x="68" y="52" font-size="17" font-weight="780" fill="#13282A">Build · Learn · Share</text>
<circle cx="254" cy="15" r="3.5" fill="#82E35B"/>
</g><path d="M40 411H560" stroke="#D2DECC"/><text x="40" y="448" font-size="12" font-weight="760" letter-spacing="1.5" fill="#68766D">ACTIVE ATTRIBUTES</text><rect x="40" y="463" width="125" height="28" rx="14" fill="#F5F8F2" stroke="#D2DECC"/><text x="102.5" y="482" text-anchor="middle" font-size="10.5" font-weight="720" fill="#244238">CORRECTNESS</text><rect x="177" y="463" width="123" height="28" rx="14" fill="#F5F8F2" stroke="#D2DECC"/><text x="238.5" y="482" text-anchor="middle" font-size="10.5" font-weight="720" fill="#244238">PERFORMANCE</text><rect x="312" y="463" width="103" height="28" rx="14" fill="#F5F8F2" stroke="#D2DECC"/><text x="363.5" y="482" text-anchor="middle" font-size="10.5" font-weight="720" fill="#244238">AI SYSTEMS</text><rect x="427" y="463" width="83" height="28" rx="14" fill="#F5F8F2" stroke="#D2DECC"/><text x="468.5" y="482" text-anchor="middle" font-size="10.5" font-weight="720" fill="#244238">TOOLING</text>
</svg>