<svg xmlns="http://www.w3.org/2000/svg" width="600" height="806" viewBox="0 0 600 806" role="img" aria-labelledby="title">
<title id="title">Repositories in the open-source journey</title>
<defs><linearGradient id="bg" x2="1" y2="1"><stop stop-color="#FAFCF7"/><stop offset="1" stop-color="#EAF3E5"/></linearGradient><radialGradient id="metal" cx="28%" cy="18%"><stop stop-color="#FFFFFF"/><stop offset="1" stop-color="#718477"/></radialGradient></defs>
<style>text{font-family:Inter,-apple-system,BlinkMacSystemFont,"Segoe UI",Arial,sans-serif}.repo{font-size:15px;font-weight:750;fill:#13282A}.focus{font-size:10px;fill:#66736A}.chip{font-size:9px;font-weight:750;fill:#0A7A43}</style>
<rect width="600" height="806" rx="25" fill="url(#bg)"/>
<g transform="translate(40 39)">
<circle cy="6" r="23" fill="#234B31" opacity=".16"/>
<circle r="23" fill="url(#metal)" stroke="#1B5337" stroke-width="2"/>
<circle r="17" fill="#13282A" stroke="#B8F29E"/>
<path d="M-11 -11H11L3 0L11 11H-11L-3 0Z" fill="#82E35B"/>
<path d="M-12 -12A16 16 0 0 1 10 -14" fill="none" stroke="#FFFFFF" stroke-opacity=".7" stroke-width="3" stroke-linecap="round"/>
</g>
<text x="75" y="35" font-family="Inter,Segoe UI,Arial" font-size="11" font-weight="750" letter-spacing="1.2" fill="#0A7A43">UPSTREAM MAP</text>
<text x="75" y="55" font-family="Inter,Segoe UI,Arial" font-size="17" font-weight="750" fill="#13282A">Where the work is happening</text>
<g transform="translate(18 80)">
<rect y="5" width="564" height="100" rx="18" fill="#31553B" opacity=".07"/>
<rect width="564" height="100" rx="18" fill="#F0F7EB" stroke="#D3DFCC"/>
<g transform="translate(31 28)">
<circle r="27.3" fill="#2EA8E6" opacity=".10"/>
<circle cy="2.5" r="21.0" fill="#234B31" opacity=".14"/>
<circle r="21.0" fill="url(#metal)" stroke="#315E43" stroke-width="1.4"/>
<circle r="16.0" fill="#F7FBFF" stroke="#D9E3D5"/>
<path d="M-10.9 -11.1A14.9 14.9 0 0 1 9.2 -12.2" fill="none" stroke="#FFFFFF" stroke-opacity=".78" stroke-width="2.3" stroke-linecap="round"/>
<g transform="translate(-12.39 -12.39) scale(0.096797)"><path fill="#2489CA" d="M33.7158 100.208C33.7158 100.208 28.9814 96.795 34.6627 92.2381L47.8994 80.402C47.8994 80.402 51.6869 76.4172 55.6915 79.8891L177.84 172.368V216.714C177.84 216.714 177.781 223.678 168.844 222.908L33.7158 100.208Z"/><path fill="#1070B3" d="M65.1997 128.792L33.7157 157.415C33.7157 157.415 30.4805 159.822 33.7157 164.123L48.3333 177.418C48.3333 177.418 51.8052 181.147 56.9341 176.905L90.3119 151.596L65.1997 128.792Z"/><path fill="#0877B9" d="M120.474 129.029L178.215 84.9391L177.84 40.83C177.84 40.83 175.374 31.2033 167.148 36.2139L90.312 106.145L120.474 129.029Z"/><path fill="#3C99D4" d="M168.844 222.968C172.198 226.4 176.262 225.276 176.262 225.276L221.259 203.103C227.019 199.177 226.21 194.305 226.21 194.305V61.8982C226.21 56.0788 220.252 54.0667 220.252 54.0667L181.253 35.267C172.731 30 167.148 36.2139 167.148 36.2139C167.148 36.2139 174.328 31.0455 177.84 40.83V215.905C177.84 217.109 177.583 218.292 177.071 219.358C176.045 221.429 173.816 223.362 168.47 222.553L168.844 222.968Z"/></g>
</g>
<text x="66" y="26" class="repo">microsoft / vscode</text>
<text x="66" y="47" class="focus">Correctness fixes, terminal suggestions, and regression t…</text>
<g transform="translate(66 61)"><rect width="104" height="27" rx="12" fill="#E2F5DC" stroke="#B8DDB0"/><text x="52" y="18" class="chip" text-anchor="middle">MERGED 1</text></g>
<g transform="translate(176 61)"><rect width="94" height="27" rx="12" fill="#F0F4EC" stroke="#D4DED0"/><text x="47" y="18" class="chip" text-anchor="middle">OPEN 3</text></g>
<g transform="translate(280 61)"><rect width="110" height="27" rx="12" fill="#F7F8F4" stroke="#DADFD7"/><text x="55" y="18" class="chip" text-anchor="middle">CLOSED 1</text></g>
</g><g transform="translate(18 196)">
<rect y="5" width="564" height="100" rx="18" fill="#31553B" opacity=".07"/>
<rect width="564" height="100" rx="18" fill="#F0F7EB" stroke="#D3DFCC"/>
<g transform="translate(31 28)">
<circle r="27.3" fill="#65C774" opacity=".10"/>
<circle cy="2.5" r="21.0" fill="#234B31" opacity=".14"/>
<circle r="21.0" fill="url(#metal)" stroke="#315E43" stroke-width="1.4"/>
<circle r="16.0" fill="#FFFFFF" stroke="#D9E3D5"/>
<path d="M-10.9 -11.1A14.9 14.9 0 0 1 9.2 -12.2" fill="none" stroke="#FFFFFF" stroke-opacity=".78" stroke-width="2.3" stroke-linecap="round"/>
<g transform="translate(-11.55 -11.55) scale(0.481250)"><path fill="#FFC107" d="M43.611 20.083H42V20H24v8h11.303C33.65 32.657 29.223 36 24 36c-6.627 0-12-5.373-12-12S17.373 12 24 12c3.059 0 5.842 1.154 7.961 3.039l5.657-5.657C34.046 6.053 29.268 4 24 4 12.955 4 4 12.955 4 24s8.955 20 20 20 20-8.955 20-20c0-1.341-.138-2.65-.389-3.917z"/><path fill="#FF3D00" d="M6.306 14.691l6.571 4.819C14.655 15.108 18.961 12 24 12c3.059 0 5.842 1.154 7.961 3.039l5.657-5.657C34.046 6.053 29.268 4 24 4 16.318 4 9.656 8.337 6.306 14.691z"/><path fill="#4CAF50" d="M24 44c5.166 0 9.86-1.977 13.409-5.192l-6.19-5.238C29.211 35.091 26.715 36 24 36c-5.202 0-9.619-3.317-11.283-7.946l-6.522 5.025C9.505 39.556 16.227 44 24 44z"/><path fill="#1976D2" d="M43.611 20.083H42V20H24v8h11.303c-.792 2.237-2.231 4.166-4.087 5.571l6.193 5.237C39.993 36.445 44 30.668 44 24c0-1.341-.138-2.65-.389-3.917z"/></g>
</g>
<text x="66" y="26" class="repo">google / googletest</text>
<text x="66" y="47" class="focus">UTF-8 output, flag parsing, and timestamp correctness</text>
<g transform="translate(66 61)"><rect width="104" height="27" rx="12" fill="#E2F5DC" stroke="#B8DDB0"/><text x="52" y="18" class="chip" text-anchor="middle">MERGED 1</text></g>
<g transform="translate(176 61)"><rect width="94" height="27" rx="12" fill="#F0F4EC" stroke="#D4DED0"/><text x="47" y="18" class="chip" text-anchor="middle">OPEN 2</text></g>
<g transform="translate(280 61)"><rect width="110" height="27" rx="12" fill="#F7F8F4" stroke="#DADFD7"/><text x="55" y="18" class="chip" text-anchor="middle">CLOSED 0</text></g>
</g><g transform="translate(18 312)">
<rect y="5" width="564" height="100" rx="18" fill="#31553B" opacity=".07"/>
<rect width="564" height="100" rx="18" fill="#FEFFF9" stroke="#D3DFCC"/>
<g transform="translate(31 28)">
<circle r="27.3" fill="#87919B" opacity=".10"/>
<circle cy="2.5" r="21.0" fill="#234B31" opacity=".14"/>
<circle r="21.0" fill="url(#metal)" stroke="#315E43" stroke-width="1.4"/>
<circle r="16.0" fill="#FFFFFF" stroke="#D9E3D5"/>
<path d="M-10.9 -11.1A14.9 14.9 0 0 1 9.2 -12.2" fill="none" stroke="#FFFFFF" stroke-opacity=".78" stroke-width="2.3" stroke-linecap="round"/>
<g fill="#111827" transform="translate(0 1)"><path d="M-7.6 -2.9L-6.1 -10.3L-1.7 -6.5H1.7L6.1 -10.3L7.6 -2.9V5.2Q0 11.6 -7.6 5.2Z"/><circle cx="-2.9" cy="0.4" r="0.9" fill="#FFFFFF"/><circle cx="2.9" cy="0.4" r="0.9" fill="#FFFFFF"/></g>
</g>
<text x="66" y="26" class="repo">ollama / ollama</text>
<text x="66" y="47" class="focus">OpenAI-compatible response IDs and streaming behavior</text>
<g transform="translate(66 61)"><rect width="104" height="27" rx="12" fill="#E2F5DC" stroke="#B8DDB0"/><text x="52" y="18" class="chip" text-anchor="middle">MERGED 0</text></g>
<g transform="translate(176 61)"><rect width="94" height="27" rx="12" fill="#F0F4EC" stroke="#D4DED0"/><text x="47" y="18" class="chip" text-anchor="middle">OPEN 2</text></g>
<g transform="translate(280 61)"><rect width="110" height="27" rx="12" fill="#F7F8F4" stroke="#DADFD7"/><text x="55" y="18" class="chip" text-anchor="middle">CLOSED 0</text></g>
</g><g transform="translate(18 428)">
<rect y="5" width="564" height="100" rx="18" fill="#31553B" opacity=".07"/>
<rect width="564" height="100" rx="18" fill="#FEFFF9" stroke="#D3DFCC"/>
<g transform="translate(31 28)">
<circle r="27.3" fill="#FFD10A" opacity=".10"/>
<circle cy="2.5" r="21.0" fill="#234B31" opacity=".14"/>
<circle r="21.0" fill="url(#metal)" stroke="#315E43" stroke-width="1.4"/>
<circle r="16.0" fill="#171B1D" stroke="#D9E3D5"/>
<path d="M-10.9 -11.1A14.9 14.9 0 0 1 9.2 -12.2" fill="none" stroke="#FFFFFF" stroke-opacity=".78" stroke-width="2.3" stroke-linecap="round"/>
<g transform="translate(-11.55 -11.55) scale(0.271765)">
<path d="M21.4062 48.0411V72.0137L42.524 84L63.6417 72.0137V48.0411L42.524 60.0274L21.4062 48.0411Z" fill="#786BB0"/>
<path d="M21.4063 48.0411V24.4041L42.5241 36.3904L63.6418 24.4041L42.5241 11.9863L21.4063 0L0 12.0822V36.0548L21.4063 48.0411Z" fill="#FFD10A"/>
<path d="M85.0001 12.0821L63.6418 .0479V24.404V47.9931L85.0001 36.0547V12.0821Z" fill="#F04F5E"/>
</g>
</g>
<text x="66" y="26" class="repo">tenstorrent / polaris</text>
<text x="66" y="47" class="focus">ONNX workloads and fused-operator support</text>
<g transform="translate(66 61)"><rect width="104" height="27" rx="12" fill="#E2F5DC" stroke="#B8DDB0"/><text x="52" y="18" class="chip" text-anchor="middle">MERGED 0</text></g>
<g transform="translate(176 61)"><rect width="94" height="27" rx="12" fill="#F0F4EC" stroke="#D4DED0"/><text x="47" y="18" class="chip" text-anchor="middle">OPEN 2</text></g>
<g transform="translate(280 61)"><rect width="110" height="27" rx="12" fill="#F7F8F4" stroke="#DADFD7"/><text x="55" y="18" class="chip" text-anchor="middle">CLOSED 0</text></g>
</g><g transform="translate(18 544)">
<rect y="5" width="564" height="100" rx="18" fill="#31553B" opacity=".07"/>
<rect width="564" height="100" rx="18" fill="#FEFFF9" stroke="#D3DFCC"/>
<g transform="translate(31 28)">
<circle r="27.3" fill="#82E35B" opacity=".10"/>
<circle cy="2.5" r="21.0" fill="#234B31" opacity=".14"/>
<circle r="21.0" fill="url(#metal)" stroke="#315E43" stroke-width="1.4"/>
<circle r="16.0" fill="#FFFFFF" stroke="#D9E3D5"/>
<path d="M-10.9 -11.1A14.9 14.9 0 0 1 9.2 -12.2" fill="none" stroke="#FFFFFF" stroke-opacity=".78" stroke-width="2.3" stroke-linecap="round"/>
<text x="0" y="3.8" text-anchor="middle" font-family="Inter,Segoe UI,Arial" font-size="14.7" font-weight="800" fill="#0A7A43">OS</text>
</g>
<text x="66" y="26" class="repo">google / osv-scanner</text>
<text x="66" y="47" class="focus">Upstream fixes, tests, and product improvements</text>
<g transform="translate(66 61)"><rect width="104" height="27" rx="12" fill="#E2F5DC" stroke="#B8DDB0"/><text x="52" y="18" class="chip" text-anchor="middle">MERGED 0</text></g>
<g transform="translate(176 61)"><rect width="94" height="27" rx="12" fill="#F0F4EC" stroke="#D4DED0"/><text x="47" y="18" class="chip" text-anchor="middle">OPEN 1</text></g>
<g transform="translate(280 61)"><rect width="110" height="27" rx="12" fill="#F7F8F4" stroke="#DADFD7"/><text x="55" y="18" class="chip" text-anchor="middle">CLOSED 0</text></g>
</g><g transform="translate(18 660)">
<rect y="5" width="564" height="100" rx="18" fill="#31553B" opacity=".07"/>
<rect width="564" height="100" rx="18" fill="#FEFFF9" stroke="#D3DFCC"/>
<g transform="translate(31 28)">
<circle r="27.3" fill="#57B8F0" opacity=".10"/>
<circle cy="2.5" r="21.0" fill="#234B31" opacity=".14"/>
<circle r="21.0" fill="url(#metal)" stroke="#315E43" stroke-width="1.4"/>
<circle r="16.0" fill="#FFFFFF" stroke="#D9E3D5"/>
<path d="M-10.9 -11.1A14.9 14.9 0 0 1 9.2 -12.2" fill="none" stroke="#FFFFFF" stroke-opacity=".78" stroke-width="2.3" stroke-linecap="round"/>
<g>
<rect x="-9.75" y="-9.75" width="7.50" height="7.50" fill="#F25022"/>
<rect x="0.75" y="-9.75" width="7.50" height="7.50" fill="#7FBA00"/>
<rect x="-9.75" y="0.75" width="7.50" height="7.50" fill="#00A4EF"/>
<rect x="0.75" y="0.75" width="7.50" height="7.50" fill="#FFB900"/>
</g>
</g>
<text x="66" y="26" class="repo">microsoft / SharePoint Embedded</text>
<text x="66" y="47" class="focus">Clearer non-admin development experience</text>
<g transform="translate(66 61)"><rect width="104" height="27" rx="12" fill="#E2F5DC" stroke="#B8DDB0"/><text x="52" y="18" class="chip" text-anchor="middle">MERGED 0</text></g>
<g transform="translate(176 61)"><rect width="94" height="27" rx="12" fill="#F0F4EC" stroke="#D4DED0"/><text x="47" y="18" class="chip" text-anchor="middle">OPEN 1</text></g>
<g transform="translate(280 61)"><rect width="110" height="27" rx="12" fill="#F7F8F4" stroke="#DADFD7"/><text x="55" y="18" class="chip" text-anchor="middle">CLOSED 0</text></g>
</g>
</svg>